<svg width="128" height="24" viewBox="0 0 128 24" fill="none" xmlns="http://www.w3.org/2000/svg">
<path d="M37.927 0L40.6212 8.2918H49.3397L42.2863 13.4164L44.9804 21.7082L37.927 16.5836L30.8736 21.7082L33.5677 13.4164L26.5143 8.2918H35.2328L37.927 0Z" fill="#F7C948"/>
<path d="M12 0L14.6942 8.2918H23.4127L16.3593 13.4164L19.0534 21.7082L12 16.5836L4.94658 21.7082L7.64074 13.4164L0.587322 8.2918H9.30583L12 0Z" fill="#F7C948"/>
<path d="M63.854 0L66.5482 8.2918H75.2667L68.2133 13.4164L70.9074 21.7082L63.854 16.5836L56.8006 21.7082L59.4947 13.4164L52.4413 8.2918H61.1598L63.854 0Z" fill="#F7C948"/>
<path d="M89.781 0L92.4752 8.2918H101.194L94.1403 13.4164L96.8344 21.7082L89.781 16.5836L82.7276 21.7082L85.4218 13.4164L78.3683 8.2918H87.0868L89.781 0Z" fill="#F7C948"/>
<path d="M115.708 0L118.402 8.2918H127.121L120.067 13.4164L122.761 21.7082L115.708 16.5836L108.655 21.7082L111.349 13.4164L104.295 8.2918H113.014L115.708 0Z" fill="#F7C948"/>
</svg>
